<?xml version="1.0" encoding="iso-8859-1"?>
<!-- Generator: Adobe Illustrator 19.0.0, SVG Export Plug-In . SVG Version: 6.00 Build 0)  -->
<svg version="1.1" id="Layer_1" xmlns="http://www.w3.org/2000/svg" xmlns:xlink="http://www.w3.org/1999/xlink" x="0px" y="0px"
	 fill="#ddd" viewBox="0 0 512 512" style="enable-background:new 0 0 512 512;" xml:space="preserve">
<g>
	<g>
		<path d="M256.012,0c-141.156,0-256,114.84-256,256c0,141.156,114.844,256,256,256c141.148,0,255.976-114.844,255.976-256
			C511.988,114.84,397.16,0,256.012,0z M360.88,379.176C349.204,395.348,332.044,404,311.272,404h-0.008
			c-16.856,0-35.64-5.94-54.316-16.996c-6.756-3.992-14.412-6.076-22.74-6.076c-25.188,0-48.956,18.412-49.192,18.596
			c-3.516,2.796-7.944,4.328-12.456,4.328c-5.1,0-9.952-1.916-13.664-5.396c-7.192-6.736-8.388-17.976-2.78-26.064
			C186.708,328.34,188.52,304,180.292,276h-43.948c-11.032,0-19.996-8.968-19.996-20c0-11.024,8.964-20,19.996-20h29.564
			c-4.084-12-8.108-28.536-8.108-47.584c0-55.416,45.084-100.464,100.504-100.464c55.12,0,99.96,44.84,99.96,99.936
			c0,11.024-8.972,20.004-19.992,20.004c-11.032,0-19.996-8.964-19.996-19.988c0-33.048-26.888-59.928-59.932-59.928
			c-33.384,0-60.552,27.072-60.552,60.436c0,17.572,4.696,31.584,10.556,47.584h47.924c11.028,0,19.996,8.976,19.996,20
			c0,11.032-8.968,20-19.996,20h-34.54c5.048,24,3.664,43.384-4.42,66.208c21.752-3.852,42.1-0.356,60.004,10.248
			c7.24,4.28,21.24,11.48,33.72,11.48c7.696,0,13.396-2.712,17.432-8.288c3.744-5.188,9.804-8.276,16.216-8.276
			c4.22,0,8.264,1.304,11.7,3.784c4.328,3.124,7.18,7.804,8.032,13.08C365.26,369.508,364.004,374.848,360.88,379.176z"/>
	</g>
</g>
<g>
</g>
<g>
</g>
<g>
</g>
<g>
</g>
<g>
</g>
<g>
</g>
<g>
</g>
<g>
</g>
<g>
</g>
<g>
</g>
<g>
</g>
<g>
</g>
<g>
</g>
<g>
</g>
<g>
</g>
</svg>
